<svg xmlns="http://www.w3.org/2000/svg" viewBox="0 0 512 384">
  <defs>
    <linearGradient id="body" x1="0" y1="0" x2="1" y2="1">
      <stop offset="0" stop-color="#92abc8"/>
      <stop offset="1" stop-color="#cfe1f4"/>
    </linearGradient>
  </defs>
  <rect width="512" height="384" rx="20" fill="#0e141a"/>
  <g transform="translate(60,240)">
    <!-- Körper -->
    <path d="M-40 40 L 60 -10 L 120 0 L 180 -30 L 240 -10 L 260 30 L 190 50 L 120 45 L 40 60 Z"
          fill="url(#body)" stroke="#bcd3ea" stroke-width="3"/>
    <!-- Kopf -->
    <path d="M160 -30 L 200 -40 L 230 -30 L 235 -10 L 205 -5 L 175 -10 Z"
          fill="url(#body)" stroke="#bcd3ea" stroke-width="3"/>
    <circle cx="212" cy="-20" r="7" fill="#ffffff"/>
    <!-- Antenne -->
    <rect x="230" y="-40" width="5" height="24" fill="#6aa9ff"/>
    <circle cx="232.5" cy="-44" r="4" fill="#9ed0ff"/>
    <!-- Beine -->
    <rect x="-10" y="40" width="14" height="30" rx="4" fill="#70889e"/>
    <rect x="40" y="44" width="14" height="26" rx="4" fill="#8aa2b8"/>
    <rect x="120" y="46" width="14" height="24" rx="4" fill="#8aa2b8"/>
    <rect x="190" y="44" width="14" height="26" rx="4" fill="#70889e"/>
  </g>
</svg>
